<?xml version="1.0" standalone="no"?>
<!DOCTYPE svg PUBLIC "-//W3C//DTD SVG 20010904//EN"
 "http://www.w3.org/TR/2001/REC-SVG-20010904/DTD/svg10.dtd">
<svg version="1.0" xmlns="http://www.w3.org/2000/svg"
 width="400.000000pt" height="400.000000pt" viewBox="0 0 400.000000 400.000000"
 preserveAspectRatio="xMidYMid meet">
<metadata>
Created by potrace 1.14, written by Peter Selinger 2001-2017
</metadata>
<g transform="translate(0.000000,400.000000) scale(0.100000,-0.100000)"
fill="#000000" stroke="none">
<path d="M289 3735 c-85 -31 -167 -104 -210 -187 -58 -111 -57 -82 -54 -1538
1 -729 5 -1341 9 -1360 15 -70 74 -177 123 -220 52 -47 132 -88 179 -93 16 -2
34 -6 39 -9 19 -11 516 -5 512 6 -2 5 -14 13 -28 16 -13 4 -51 20 -84 35 -232
109 -402 333 -466 615 -36 158 -32 452 7 620 3 14 8 36 11 50 3 14 6 30 8 35
1 6 6 25 10 43 4 17 10 33 14 33 13 3 124 15 221 24 25 2 63 7 85 10 22 3 63
7 90 10 110 10 239 23 295 30 19 3 64 8 100 11 36 3 76 8 90 9 14 1 57 6 95
10 72 7 117 12 183 20 20 2 64 7 97 10 33 3 77 8 98 10 33 4 37 2 38 -18 1
-30 4 -55 18 -167 7 -52 14 -113 17 -135 2 -22 6 -58 9 -80 2 -22 7 -67 10
-100 3 -33 8 -67 10 -75 3 -8 7 -42 10 -75 3 -33 8 -76 11 -95 2 -19 6 -57 9
-85 3 -27 7 -61 10 -75 2 -14 7 -52 11 -85 3 -33 7 -71 9 -85 2 -14 6 -56 9
-95 4 -38 9 -77 11 -85 3 -8 7 -37 10 -65 17 -161 17 -155 -2 -161 -10 -3 -37
-14 -59 -25 -23 -10 -89 -33 -148 -51 -58 -17 -106 -35 -106 -38 0 -4 457 -7
1015 -7 558 0 1015 4 1015 9 0 4 3 7 8 6 4 -1 27 1 50 5 131 22 236 137 282
307 17 61 18 152 18 1398 0 777 -4 1335 -9 1338 -5 3 -7 9 -5 13 8 13 -34 134
-61 176 -37 59 -101 114 -163 144 l-55 26 -323 3 c-282 3 -330 1 -375 -14 -29
-9 -56 -20 -62 -24 -5 -4 -30 -15 -55 -23 -25 -9 -214 -81 -420 -162 -206 -81
-411 -160 -455 -176 -44 -16 -89 -34 -100 -39 -11 -5 -65 -27 -120 -49 -55
-22 -156 -63 -225 -91 -69 -28 -129 -53 -135 -54 -5 -2 -19 -7 -30 -11 -89
-36 -296 -115 -302 -115 -6 0 78 84 203 200 71 67 226 185 345 263 167 108
447 241 587 277 23 6 42 13 42 15 0 3 -435 5 -967 4 -775 0 -975 -3 -1004 -14z
m2938 -85 c18 -11 46 -32 63 -47 l30 -27 -47 -19 c-27 -10 -93 -36 -148 -57
-55 -21 -181 -71 -280 -110 -99 -39 -184 -72 -190 -74 -11 -3 -13 -4 -160 -64
-186 -75 -452 -180 -630 -248 -93 -36 -183 -71 -200 -79 -16 -7 -43 -18 -60
-23 -16 -6 -129 -49 -250 -97 -208 -82 -387 -151 -465 -181 -19 -7 -63 -24
-98 -38 -34 -13 -59 -19 -55 -13 3 7 37 53 74 103 62 83 74 94 126 114 32 12
67 26 78 31 11 5 97 38 190 74 94 36 179 69 190 74 11 5 153 61 315 125 162
63 338 132 390 154 52 21 131 53 175 70 392 152 547 212 735 286 91 36 170 65
175 66 6 0 25 -9 42 -20z m232 -240 l40 -61 -32 -14 c-17 -8 -88 -37 -157 -64
-69 -27 -163 -65 -210 -84 -86 -36 -294 -117 -515 -202 -66 -26 -129 -50 -140
-55 -42 -18 -363 -143 -375 -145 -3 -1 -18 -7 -35 -14 -16 -6 -118 -46 -225
-88 -107 -42 -292 -114 -410 -160 -118 -47 -242 -95 -275 -108 -33 -13 -109
-42 -170 -66 -60 -23 -185 -73 -278 -109 -139 -56 -166 -64 -161 -48 5 17 67
134 89 169 9 14 120 60 435 181 112 42 137 52 173 68 19 8 75 30 377 147 36
13 103 40 150 58 115 45 362 141 430 167 30 11 64 24 75 29 11 5 135 54 275
110 140 55 309 122 375 148 66 27 192 76 280 110 88 34 169 66 180 71 23 10
47 18 57 19 4 1 25 -26 47 -59z m109 -246 c8 -27 15 -60 15 -74 2 -24 -32 -38
-908 -378 -500 -195 -919 -358 -930 -363 -25 -11 -302 -119 -485 -188 -74 -29
-144 -56 -155 -61 -77 -36 -735 -285 -735 -279 0 20 54 165 65 178 11 11 464
192 880 351 172 66 389 150 410 159 11 5 91 37 178 71 434 168 603 234 722
280 72 29 141 55 155 60 14 5 106 40 205 80 99 39 234 92 300 117 131 49 162
62 215 86 19 9 39 15 45 13 5 -1 15 -25 23 -52z m47 -319 c3 -123 -1 -176 -19
-300 -37 -252 -150 -554 -314 -840 -25 -44 -50 -81 -54 -83 -4 -2 -8 -10 -8
-18 0 -8 -4 -14 -10 -14 -5 0 -10 -4 -10 -9 0 -6 -15 -31 -32 -57 -18 -25 -37
-53 -43 -62 -81 -127 -368 -441 -515 -563 -36 -30 -67 -57 -70 -60 -3 -3 -39
-31 -80 -62 -41 -31 -79 -60 -85 -65 -51 -42 -359 -222 -406 -237 -19 -6 -21
-5 -14 11 4 11 9 33 11 49 2 17 9 55 15 85 5 30 12 68 14 85 3 16 11 65 19
110 9 44 18 95 21 113 3 17 7 44 10 60 2 15 7 43 10 62 3 19 8 42 10 50 4 14
13 66 20 115 3 18 17 100 31 175 2 14 7 41 9 60 3 19 10 55 15 80 6 25 12 62
15 84 2 21 7 46 9 55 3 9 7 34 11 56 5 37 17 107 30 180 3 17 7 44 10 60 3 17
10 53 16 81 l10 52 135 93 c74 52 164 114 199 139 35 25 100 70 145 100 44 30
89 62 100 70 10 8 159 112 330 230 171 118 341 236 378 263 l67 47 8 -27 c5
-16 10 -91 12 -168z"/>
</g>
</svg>
